<svg xmlns="http://www.w3.org/2000/svg" data-name="Component 28 – 1" viewBox="0 0 81.478 81.45"><defs><clipPath id="a"><path fill="#093a3e" d="M0 0h81.478v81.45H0z" data-name="Rectangle 2"/></clipPath></defs><g fill="#093a3e" clip-path="url(#a)" data-name="Group 2"><path d="M47.183 34.4a9.327 9.327 0 0 1-3.129-6.9c0-.3.006-.579.023-.869a9.361 9.361 0 0 1 2.5-5.8c1.692-1.859 4.38-3.522 8.5-4.843 9.329-2.977 9.926-5.856 9.926-8.492A6.611 6.611 0 0 0 60.382 1.4C55.225-.506 49.06 3.96 45.908 6.9V4.211C48.491 2.479 52.768 0 55.868 0c4.612 0 11.023 3.221 11.023 9.477 0 4.918-3.772 7.3-10.175 9.332-8.79 2.827-10.47 7.345-10.47 10.821a6.6 6.6 0 0 0 1.413 4.165c.006.012.017.012.017.018a6.645 6.645 0 0 0 4.178 1.425c3.471 0 7.985-1.691 10.812-10.479 2.04-6.389 4.427-10.172 9.335-10.172 6.252 0 9.479 6.4 9.479 11.023 0 4.043-4.242 10.108-5.5 11.776a.1.1 0 0 0-.023.029h-3.309a.151.151 0 0 0 .035-.029c1.941-1.552 9.833-9.731 7.417-16.294a6.634 6.634 0 0 0-6.113-4.617c-2.631 0-5.5.6-8.483 9.928-1.321 4.119-2.984 6.812-4.838 8.5a9.423 9.423 0 0 1-5.806 2.485c-.3.023-.58.029-.881.029a9.26 9.26 0 0 1-6.774-3c-.006-.011-.006-.011-.017-.017" data-name="Path 3"/><path d="M37.4 26.623c.017.29.029.574.029.869a9.289 9.289 0 0 1-3.025 6.8c-.035.035-.075.069-.11.11a9.236 9.236 0 0 1-6.791 3.018c-.3 0-.585-.006-.869-.029a9.415 9.415 0 0 1-5.794-2.473c-1.866-1.691-3.54-4.379-4.85-8.509-2.978-9.332-5.864-9.928-8.494-9.928a6.62 6.62 0 0 0-6.1 4.617c-2.427 6.556 5.47 14.735 7.404 16.287a.14.14 0 0 0 .035.029H5.528a.1.1 0 0 0-.023-.029C4.242 35.717 0 29.652 0 25.609c0-4.622 3.228-11.023 9.485-11.023 4.914 0 7.3 3.782 9.334 10.172 2.828 8.787 7.347 10.479 10.818 10.479a6.607 6.607 0 0 0 4.172-1.425l.018-.018a6.57 6.57 0 0 0 1.419-4.165c0-3.476-1.686-7.994-10.47-10.821-6.4-2.033-10.18-4.414-10.18-9.332C14.6 3.221 21 0 25.616 0c3.094 0 7.365 2.479 9.955 4.205v2.688C32.413 3.95 26.254-.51 21.1 1.4a6.606 6.606 0 0 0-4.61 6.09c0 2.636.591 5.515 9.926 8.492 4.148 1.332 6.843 3.012 8.529 4.877a9.359 9.359 0 0 1 2.455 5.764" data-name="Path 4"/><path d="M34.424 47.186a9.284 9.284 0 0 1 3.007 6.772 8.673 8.673 0 0 1-.041.875 9.353 9.353 0 0 1-2.457 5.775c-1.68 1.865-4.38 3.551-8.517 4.871-9.335 2.972-9.926 5.845-9.926 8.481a6.627 6.627 0 0 0 4.612 6.105c5.151 1.894 11.311-2.56 14.468-5.5v2.676c-2.59 1.726-6.86 4.205-9.955 4.205-4.618 0-11.02-3.221-11.02-9.477 0-4.918 3.777-7.293 10.18-9.332 8.784-2.827 10.47-7.345 10.47-10.821a6.57 6.57 0 0 0-1.419-4.165l-.018-.017a6.605 6.605 0 0 0-4.172-1.425c-3.471 0-7.99 1.692-10.818 10.479-2.034 6.4-4.421 10.172-9.334 10.172-6.258 0-9.485-6.4-9.485-11.012 0-4.055 4.242-10.12 5.5-11.788a.092.092 0 0 0 .023-.029h3.314a.147.147 0 0 0-.035.029C6.866 45.616-1.031 53.793 1.4 60.359a6.626 6.626 0 0 0 6.1 4.623c2.63 0 5.516-.6 8.494-9.923 1.31-4.124 2.972-6.812 4.838-8.5a9.386 9.386 0 0 1 5.806-2.491c.284-.023.573-.029.869-.029a9.267 9.267 0 0 1 6.9 3.134.042.042 0 0 1 .017.017" data-name="Path 5"/><path d="M75.974 44.064c1.263 1.668 5.5 7.733 5.5 11.788 0 4.611-3.228 11.012-9.479 11.012-4.908 0-7.295-3.771-9.335-10.172-2.828-8.787-7.341-10.479-10.812-10.479a6.645 6.645 0 0 0-4.177 1.425c0 .006-.011.006-.017.017a6.6 6.6 0 0 0-1.414 4.165c0 3.476 1.68 7.994 10.47 10.821 6.4 2.039 10.175 4.414 10.175 9.332 0 6.256-6.409 9.477-11.021 9.477-3.1 0-7.376-2.479-9.96-4.211v-2.676c3.152 2.937 9.317 7.4 14.474 5.5a6.632 6.632 0 0 0 4.618-6.106c0-2.635-.6-5.509-9.926-8.48-4.1-1.315-6.791-2.977-8.488-4.825a9.353 9.353 0 0 1-2.5-5.822 8.68 8.68 0 0 1-.035-.875 9.248 9.248 0 0 1 3.031-6.789.8.8 0 0 1 .1-.1 9.2 9.2 0 0 1 6.79-3.03c.3 0 .585.006.881.029a9.434 9.434 0 0 1 5.812 2.5c1.848 1.691 3.511 4.379 4.832 8.492 2.978 9.32 5.852 9.923 8.483 9.923a6.64 6.64 0 0 0 6.113-4.623c2.416-6.563-5.476-14.742-7.417-16.295a.141.141 0 0 0-.035-.029h3.309a.093.093 0 0 0 .023.029" data-name="Path 6"/></g></svg>